<svg width="24" height="24" viewBox="0 0 24 24" fill="none" xmlns="http://www.w3.org/2000/svg">
<path fill-rule="evenodd" clip-rule="evenodd" d="M15 3C15.5523 3 16 3.44772 16 4V11H18.5858L17.2929 9.70711C16.9024 9.31658 16.9024 8.68342 17.2929 8.29289C17.6834 7.90237 18.3166 7.90237 18.7071 8.29289L21.7071 11.2929C21.9 11.4858 21.9976 11.7379 22 11.9908L17.2929 14.2929L18.5858 13H16V20C16 20.5523 15.5523 21 15 21H4C3.44772 21 3 20.5523 3 20V4C3 3.44772 3.44772 3 4 3H15ZM14 11H11.5C10.9477 11 10.5 11.4477 10.5 12C10.5 12.5523 10.9477 13 11.5 13H14V19H5V5H14V11ZM17.2929 14.2929L22 12C22 12.016 21.9996 12.032 21.9989 12.048C21.9874 12.2877 21.8902 12.524 21.7071 12.7071L18.7071 15.7071C18.3166 16.0976 17.6834 16.0976 17.2929 15.7071C16.9024 15.3166 16.9024 14.6834 17.2929 14.2929Z" fill="white"/>
</svg>
