<svg width="24" height="24" viewBox="0 0 24 24" fill="none" xmlns="http://www.w3.org/2000/svg">
<path fill-rule="evenodd" clip-rule="evenodd" d="M11.9487 23C18.0239 23 22.9487 18.0751 22.9487 12C22.9487 5.92487 18.0239 1 11.9487 1C5.8736 1 0.94873 5.92487 0.94873 12C0.94873 18.0751 5.8736 23 11.9487 23ZM11.9487 21C6.97817 21 2.94873 16.9706 2.94873 12C2.94873 7.02944 6.97817 3 11.9487 3C16.9193 3 20.9487 7.02944 20.9487 12C20.9487 16.9706 16.9193 21 11.9487 21ZM12.9487 14C12.9487 13.3159 13.1651 12.9628 13.6749 12.6034C13.7365 12.5599 13.8995 12.4563 14.0604 12.3541C14.2159 12.2553 14.3693 12.1578 14.4278 12.1168C14.559 12.0247 14.6715 11.9339 14.7737 11.8319C15.5204 11.087 15.9487 10.0762 15.9487 9C15.9487 6.79086 14.1579 5 11.9487 5C10.7867 5 9.70315 5.49961 8.94924 6.35361C8.60727 6.74099 8.34255 7.19142 8.17162 7.68093C7.98954 8.20234 8.26462 8.77262 8.78603 8.9547C9.30743 9.13678 9.87772 8.8617 10.0598 8.34029C10.145 8.09641 10.2772 7.87132 10.4486 7.67722C10.8267 7.24886 11.3665 7 11.9487 7C13.0533 7 13.9487 7.89543 13.9487 9C13.9487 9.53941 13.7356 10.0425 13.3612 10.416C13.3506 10.4265 13.3236 10.4484 13.2791 10.4796C13.2596 10.4933 13.1843 10.541 13.0865 10.6029C12.9039 10.7185 12.6431 10.8837 12.5223 10.9689C11.5178 11.6772 10.9487 12.6058 10.9487 14C10.9487 14.5523 11.3964 15 11.9487 15C12.501 15 12.9487 14.5523 12.9487 14ZM12.6558 17.7071C13.0464 17.3166 13.0464 16.6834 12.6558 16.2929C12.2653 15.9024 11.6321 15.9024 11.2416 16.2929C10.8511 16.6834 10.8511 17.3166 11.2416 17.7071C11.6321 18.0976 12.2653 18.0976 12.6558 17.7071Z" fill="white"/>
</svg>
