<svg width="17" height="16" viewBox="0 0 17 16" fill="none" xmlns="http://www.w3.org/2000/svg">
<path fill-rule="evenodd" clip-rule="evenodd" d="M2.68322 8.00016C2.68322 7.92079 2.68496 7.84161 2.68843 7.76266L1.65493 6.59718C1.46455 6.38248 1.43291 6.07004 1.57638 5.82153L2.90972 3.51213C3.05319 3.26362 3.33959 3.1348 3.62072 3.19233L5.14611 3.50448C5.27994 3.41887 5.41756 3.33926 5.55857 3.26592L6.05077 1.78934C6.14151 1.51712 6.39627 1.3335 6.68322 1.3335H9.34989C9.63684 1.3335 9.8916 1.51712 9.98234 1.78934L10.4745 3.26592C10.6155 3.33926 10.7532 3.41887 10.887 3.50448L12.4124 3.19233C12.6935 3.1348 12.9799 3.26362 13.1234 3.51213L14.4567 5.82153C14.6002 6.07004 14.5686 6.38248 14.3782 6.59718L13.3447 7.76266C13.3481 7.84161 13.3499 7.92079 13.3499 8.00016C13.3499 8.07954 13.3481 8.15872 13.3447 8.23767L14.3782 9.40315C14.5686 9.61785 14.6002 9.93029 14.4567 10.1788L13.1234 12.4882C12.9799 12.7367 12.6935 12.8655 12.4124 12.808L10.887 12.4958C10.7532 12.5815 10.6155 12.6611 10.4745 12.7344L9.98234 14.211C9.8916 14.4832 9.63684 14.6668 9.34989 14.6668H6.68322C6.39627 14.6668 6.14151 14.4832 6.05077 14.211L5.55857 12.7344C5.41756 12.6611 5.27994 12.5815 5.14611 12.4958L3.62072 12.808C3.33959 12.8655 3.05319 12.7367 2.90972 12.4882L1.57638 10.1788C1.43291 9.93029 1.46455 9.61785 1.65493 9.40315L2.68843 8.23767C2.68496 8.15872 2.68322 8.07954 2.68322 8.00016ZM2.97134 6.07207L3.87207 7.08783C3.99548 7.227 4.05513 7.4114 4.03662 7.59648C4.02328 7.72991 4.01655 7.86457 4.01655 8.00016C4.01655 8.13576 4.02328 8.27042 4.03662 8.40384C4.05513 8.58892 3.99548 8.77333 3.87207 8.9125L2.97134 9.92826L3.82417 11.4054L5.15421 11.1332C5.33691 11.0958 5.52691 11.1367 5.6781 11.2458C5.89659 11.4036 6.1304 11.5389 6.37605 11.6495C6.54582 11.726 6.67588 11.87 6.73476 12.0466L7.16373 13.3335H8.86938L9.29835 12.0466C9.35723 11.87 9.48729 11.726 9.65705 11.6495C9.90271 11.5389 10.1365 11.4036 10.355 11.2458C10.5062 11.1367 10.6962 11.0958 10.8789 11.1332L12.2089 11.4054L13.0618 9.92826L12.161 8.9125C12.0376 8.77333 11.978 8.58893 11.9965 8.40384C12.0098 8.27042 12.0166 8.13576 12.0166 8.00016C12.0166 7.86457 12.0098 7.72991 11.9965 7.59648C11.978 7.4114 12.0376 7.227 12.161 7.08783L13.0618 6.07207L12.2089 4.59493L10.8789 4.8671C10.6962 4.90449 10.5062 4.86364 10.355 4.75449C10.1365 4.59675 9.90271 4.46141 9.65705 4.35078C9.48729 4.27433 9.35723 4.13036 9.29835 3.95373L8.86938 2.66683H7.16373L6.73476 3.95373C6.67588 4.13036 6.54582 4.27433 6.37605 4.35078C6.1304 4.46141 5.89659 4.59675 5.6781 4.75449C5.52691 4.86364 5.33691 4.90449 5.15421 4.8671L3.82417 4.59493L2.97134 6.07207ZM9.34989 8.00016C9.34989 8.73654 8.75293 9.3335 8.01655 9.3335C7.28017 9.3335 6.68322 8.73654 6.68322 8.00016C6.68322 7.26378 7.28017 6.66683 8.01655 6.66683C8.75293 6.66683 9.34989 7.26378 9.34989 8.00016Z" fill="#4C84FF"/>
</svg>
